<?xml version="1.0" encoding="UTF-8"?>
<svg xmlns="http://www.w3.org/2000/svg" xmlns:xlink="http://www.w3.org/1999/xlink" height="16px" viewBox="0 0 16 16" width="16px"><filter id="a" height="100%" width="100%" x="0%" y="0%"><feColorMatrix in="SourceGraphic" type="matrix" values="0 0 0 0 1 0 0 0 0 1 0 0 0 0 1 0 0 0 1 0"/></filter><mask id="b"><g filter="url(#a)"><path d="m 0 0 h 16 v 16 h -16 z" fill-opacity="0.3"/></g></mask><clipPath id="c"><path d="m 0 0 h 1600 v 1200 h -1600 z"/></clipPath><mask id="d"><g filter="url(#a)"><path d="m 0 0 h 16 v 16 h -16 z" fill-opacity="0.05"/></g></mask><clipPath id="e"><path d="m 0 0 h 1600 v 1200 h -1600 z"/></clipPath><mask id="f"><g filter="url(#a)"><path d="m 0 0 h 16 v 16 h -16 z" fill-opacity="0.05"/></g></mask><clipPath id="g"><path d="m 0 0 h 1600 v 1200 h -1600 z"/></clipPath><mask id="h"><g filter="url(#a)"><path d="m 0 0 h 16 v 16 h -16 z" fill-opacity="0.05"/></g></mask><clipPath id="i"><path d="m 0 0 h 1600 v 1200 h -1600 z"/></clipPath><mask id="j"><g filter="url(#a)"><path d="m 0 0 h 16 v 16 h -16 z" fill-opacity="0.05"/></g></mask><clipPath id="k"><path d="m 0 0 h 1600 v 1200 h -1600 z"/></clipPath><mask id="l"><g filter="url(#a)"><path d="m 0 0 h 16 v 16 h -16 z" fill-opacity="0.05"/></g></mask><clipPath id="m"><path d="m 0 0 h 1600 v 1200 h -1600 z"/></clipPath><mask id="n"><g filter="url(#a)"><path d="m 0 0 h 16 v 16 h -16 z" fill-opacity="0.05"/></g></mask><clipPath id="o"><path d="m 0 0 h 1600 v 1200 h -1600 z"/></clipPath><mask id="p"><g filter="url(#a)"><path d="m 0 0 h 16 v 16 h -16 z" fill-opacity="0.3"/></g></mask><clipPath id="q"><path d="m 0 0 h 1600 v 1200 h -1600 z"/></clipPath><mask id="r"><g filter="url(#a)"><path d="m 0 0 h 16 v 16 h -16 z" fill-opacity="0.5"/></g></mask><clipPath id="s"><path d="m 0 0 h 1600 v 1200 h -1600 z"/></clipPath><g clip-path="url(#c)" mask="url(#b)" transform="matrix(1 0 0 1 -156 -904)"><path d="m 562.460938 212.058594 h 10.449218 c -1.183594 0.492187 -1.296875 2.460937 0 3 h -10.449218 z m 0 0" fill="#2e3436"/></g><g clip-path="url(#e)" mask="url(#d)" transform="matrix(1 0 0 1 -156 -904)"><path d="m 16 748 h 1 v 1 h -1 z m 0 0" fill="#2e3436" fill-rule="evenodd"/></g><g clip-path="url(#g)" mask="url(#f)" transform="matrix(1 0 0 1 -156 -904)"><path d="m 17 747 h 1 v 1 h -1 z m 0 0" fill="#2e3436" fill-rule="evenodd"/></g><g clip-path="url(#i)" mask="url(#h)" transform="matrix(1 0 0 1 -156 -904)"><path d="m 18 750 h 1 v 1 h -1 z m 0 0" fill="#2e3436" fill-rule="evenodd"/></g><g clip-path="url(#k)" mask="url(#j)" transform="matrix(1 0 0 1 -156 -904)"><path d="m 16 750 h 1 v 1 h -1 z m 0 0" fill="#2e3436" fill-rule="evenodd"/></g><g clip-path="url(#m)" mask="url(#l)" transform="matrix(1 0 0 1 -156 -904)"><path d="m 17 751 h 1 v 1 h -1 z m 0 0" fill="#2e3436" fill-rule="evenodd"/></g><g clip-path="url(#o)" mask="url(#n)" transform="matrix(1 0 0 1 -156 -904)"><path d="m 19 751 h 1 v 1 h -1 z m 0 0" fill="#2e3436" fill-rule="evenodd"/></g><g clip-path="url(#q)" mask="url(#p)" transform="matrix(1 0 0 1 -156 -904)"><path d="m 136 776 v 7 h 7 v -7 z m 0 0" fill="#2e3436"/></g><g clip-path="url(#s)" mask="url(#r)" transform="matrix(1 0 0 1 -156 -904)"><path d="m 219 758 h 3 v 12 h -3 z m 0 0" fill="#2e3436"/></g><g fill="#2e3436"><path d="m 4 2 v 2 h 6 c 0.429688 0 1 0.613281 1 1 v 1 h -5 c -0.917969 0 -1.734375 0.378906 -2.25 0.964844 c -0.515625 0.585937 -0.742188 1.324218 -0.738281 2.046875 c 0.007812 0.71875 0.246093 1.445312 0.757812 2.027343 c 0.515625 0.578126 1.320313 0.960938 2.230469 0.960938 h 7 v -7 c 0 -1.632812 -1.320312 -3 -3 -3 z m 2 6 h 5 v 2 h -5 c -0.398438 0 -0.578125 -0.117188 -0.730469 -0.289062 c -0.152343 -0.167969 -0.253906 -0.441407 -0.257812 -0.722657 c 0 -0.277343 0.09375 -0.539062 0.238281 -0.703125 c 0.148438 -0.164062 0.328125 -0.285156 0.75 -0.285156 z m 0 0"/><path d="m 4.078125 12.289062 l -2.425781 2.351563 l 0.695312 0.71875 l 1.695313 -1.648437 l 1.878906 2.003906 l 2.042969 -2.007813 l 2.007812 2 l 1.972656 -2 l 1.707032 1.652344 l 0.695312 -0.71875 l -2.417968 -2.347656 l -1.964844 1.996093 l -1.992188 -1.996093 l -2.023437 1.988281 z m 0 0"/></g></svg>
