<?xml version="1.0" encoding="UTF-8"?>
<svg width="200" height="200" version="1.1" viewBox="0 0 52.917 52.917" xmlns="http://www.w3.org/2000/svg" xmlns:cc="http://creativecommons.org/ns#" xmlns:dc="http://purl.org/dc/elements/1.1/" xmlns:rdf="http://www.w3.org/1999/02/22-rdf-syntax-ns#">
 <metadata>
  <rdf:RDF>
   <cc:Work rdf:about="">
    <dc:format>image/svg+xml</dc:format>
    <dc:type rdf:resource="http://purl.org/dc/dcmitype/StillImage"/>
   </cc:Work>
  </rdf:RDF>
 </metadata>
 <g transform="matrix(1.0592 0 0 1.0592 -24.157 -28.527)">
  <g transform="translate(-42.115 -17.994)">
   <g transform="matrix(4.3205 0 0 4.3205 -37.272 -327.65)" style="shape-inside:url(#rect835);white-space:pre" aria-label="众">
    <path d="m34.996 90.121-0.61495 0.75964q-2.7543-1.4159-3.9481-2.9507-1.1679 1.6175-3.7672 2.8887l-0.65629-0.7338q3.4571-1.602 4.284-3.8499l0.8785 0.27388q-0.1757 0.51676-0.23254 0.60461 1.1162 1.5968 4.0566 3.0076zm0.16536 4.9196-0.67696 0.64595q-1.5141-1.1575-2.3461-2.8267-0.54777 1.5503-2.2686 2.806l-0.67696-0.62528q1.1989-0.79581 1.7983-1.8758 0.59944-1.08 0.68213-3.0799l0.9095 0.07751q0 0.26872-0.04134 0.67179l-0.03617 0.36173q0 0.27388 0.30489 1.0335 0.31006 0.75447 0.89917 1.4676 0.59428 0.70796 1.4521 1.3436zm-4.8007-1.3746-0.7028 0.63045q-0.59428-0.78031-1.1627-1.2764-0.65112 1.4211-2.0205 2.6768l-0.6873-0.61495q1.2299-1.0955 1.7673-2.2014 0.5426-1.1059 0.69763-2.7957l0.91984 0.09819q-0.10335 0.94051-0.3669 1.9172 1.0025 0.86299 1.5555 1.5658z"/>
   </g>
   <g aria-label="L">
    <path d="m84.814 94.883v-3.5585h-15.623v-28.077h-4.0359v31.636z" stroke-width="1.0849"/>
   </g>
  </g>
 </g>
</svg>
