<?xml version="1.0" encoding="UTF-8"?>
<svg width="44" height="44" fill="none" version="1.1" xmlns="http://www.w3.org/2000/svg">
 <g transform="matrix(1.2941 0 0 1.2941 -6.4706 -6.4706)" clip-path="url(#a)">
  <path d="m39 39h-9.63l-14.74-34h24.37z" fill="#fc3f1d"/>
  <path d="m39 39h-9.63l-14.74-34h24.37z" fill="#2b2b2b"/>
  <path d="m33.71 19.33a4.1 4.1 0 0 0-2.2-2.17c0.18-0.8 0.24-1.46 0.26-1.9h-1.8a9.8 9.8 0 0 1-0.2 1.41c-1.4-0.2-2.98 0-4.5 0.54-0.17-0.98-0.28-1.9-0.34-2.7 5.41-0.3 8.6-1.58 8.75-1.65l-0.68-1.62c-0.03 0-3.06 1.2-8.13 1.5 0-1.21-0.04-1.2 0.02-1.61l-1.8-0.02c-0.04 0.34-0.03 0.7-0.02 1.7h-0.17c-1.62 0-3.12-0.12-3.48-0.15l-0.33 1.79c0.53 0.04 2.15 0.13 3.6 0.13h0.22l0.23-0.01c0.07 1 0.2 2.16 0.44 3.42-2.39 1.4-4.3 4.1-3.32 6.3 0.4 0.92 1.19 1.52 2.2 1.67 0.18 0.02 0.36 0.04 0.54 0.04 1.03 0 2.21-0.41 3.34-1.11a10.8 10.8 0 0 0 1.39 1.7l1.24-1.29c-0.02-0.01-0.54-0.5-1.2-1.49a12.86 12.86 0 0 0 3.26-4.91c0.4 0.23 0.8 0.57 1.02 1.09 0.72 1.75-0.32 3.78-1.3 4.66l1.23 1.3c1.62-1.47 2.73-4.21 1.74-6.62zm-10.98 4.87a0.98 0.98 0 0 1-0.83-0.62c-0.44-1.01 0.52-2.67 2.1-3.77 0.4 1.4 0.9 2.6 1.41 3.56-0.96 0.6-1.95 0.94-2.68 0.83zm4.51-2.4-0.4 0.42c-0.44-0.9-0.88-1.98-1.2-3.26a8.31 8.31 0 0 1 3.65-0.58 11.12 11.12 0 0 1-2.05 3.43z" clip-rule="evenodd" fill="#fff" fill-rule="evenodd"/>
  <path d="m5 5h9.63l14.74 34h-24.37z" fill="#fc3f1d"/>
  <path d="m5 5h9.63l14.74 34h-24.37z" fill="url(#b)" fill-opacity=".4"/>
  <path d="m15.38 17.42-5.86 13.54h2.4l1.44-3.61h5.93l1.44 3.61h2.4l-5.86-13.54h-1.9zm0.94 2.79 2.19 5.31h-4.37z" clip-rule="evenodd" fill="#fff" fill-rule="evenodd"/>
 </g>
 <defs>
  <linearGradient id="b" x1="49.36" x2="13.14" y1="1.11" y2="32.31" gradientUnits="userSpaceOnUse">
   <stop stop-color="#fff" offset="0"/>
   <stop stop-color="#fff" stop-opacity="0" offset="1"/>
  </linearGradient>
  <clipPath id="a">
   <circle cx="22" cy="22" r="17"/>
  </clipPath>
 </defs>
</svg>
