<svg xmlns="http://www.w3.org/2000/svg" width="24" height="24" fill="none"><g filter="url(#a)"><path fill="url(#b)" fill-rule="evenodd" d="M18.846 10.076c.08-.953-.1-2.516-1.363-2.844-.5-.13-.307-.739.335-.601 1.021.219 3.32.79 3.633 3.45A2.73 2.73 0 0 1 24 12.807v7.755a2.73 2.73 0 0 1-2.73 2.73h-8.91a2.73 2.73 0 0 1-2.73-2.73v-7.755a2.73 2.73 0 0 1 2.73-2.73h6.486Z" clip-rule="evenodd"/></g><path fill="#fff" d="m16.972 13.113-1.134-.026c.009.148-.008.358-.017.523-.018.149-.035.306-.053.471h-.348c-.532 0-1.3-.07-1.605-.122l.026 1.012c.41.017 1.09.052 1.544.052h.279a21.75 21.75 0 0 0-.079 1.099c-1.22.575-2.145 1.744-2.145 2.87 0 .88.54 1.264 1.177 1.264.462 0 .925-.14 1.352-.35.035.123.079.245.114.358l1.002-.305c-.07-.21-.14-.427-.2-.645.663-.55 1.36-1.465 1.831-2.651.602.235.907.697.907 1.22 0 .855-.68 1.71-2.363 1.893l.575.916c2.146-.323 2.87-1.518 2.87-2.756 0-1.012-.672-1.805-1.683-2.137.052-.165.122-.349.157-.445l-1.064-.252a4.83 4.83 0 0 1-.079.523h-.157c-.427 0-.88.06-1.3.157.01-.262.035-.532.062-.794 1.072-.043 2.241-.148 3.096-.305l-.01-1.012c-.958.227-1.9.34-2.964.384.026-.174.06-.331.087-.48.035-.13.07-.287.122-.462Zm-2.503 5.651c0-.497.436-1.16 1.09-1.604.018.601.088 1.203.183 1.744-.314.183-.628.288-.872.288-.279 0-.4-.149-.4-.428Zm2.076-2.032v-.026a4.38 4.38 0 0 1 1.203-.192 5.369 5.369 0 0 1-1.099 1.666 9.194 9.194 0 0 1-.104-1.448Z"/><g filter="url(#c)"><path fill="#fff" fill-opacity=".55" fill-rule="evenodd" d="M2.73 0A2.73 2.73 0 0 0 0 2.73v8.403a2.73 2.73 0 0 0 2.538 2.724c.546 2.35 2.72 2.887 3.72 3.102.674.144.876-.495.352-.63-1.114-.29-1.424-1.495-1.445-2.466h7.18a2.73 2.73 0 0 0 2.73-2.73V2.73A2.73 2.73 0 0 0 12.345 0H2.73Z" clip-rule="evenodd"/></g><path fill="url(#d)" d="M11.146 11.222h-1.4l-.691-1.957H6.03l-.665 1.957H3.971l2.88-7.69h1.437l2.858 7.69Zm-2.43-2.997L7.65 5.157c-.032-.1-.066-.26-.102-.482h-.022a3.14 3.14 0 0 1-.107.482L6.363 8.225h2.354Z"/><defs><linearGradient id="b" x1="15.018" x2="24.602" y1="8.792" y2="23.497" gradientUnits="userSpaceOnUse"><stop stop-color="#81D1FF"/><stop offset="1" stop-color="#4667DD"/></linearGradient><linearGradient id="d" x1="9.749" x2="3.102" y1="12.213" y2=".247" gradientUnits="userSpaceOnUse"><stop stop-color="#66BAF7"/><stop offset="1" stop-color="#2B39BB"/></linearGradient><filter id="a" width="14.371" height="20.122" x="9.629" y="6.611" color-interpolation-filters="sRGB" filterUnits="userSpaceOnUse"><feFlood flood-opacity="0" result="BackgroundImageFix"/><feBlend in="SourceGraphic" in2="BackgroundImageFix" result="shape"/><feColorMatrix in="SourceAlpha" result="hardAlpha" values="0 0 0 0 0 0 0 0 0 0 0 0 0 0 0 0 0 0 127 0"/><feOffset dy="3.441"/><feGaussianBlur stdDeviation="3.441"/><feComposite in2="hardAlpha" k2="-1" k3="1" operator="arithmetic"/><feColorMatrix values="0 0 0 0 0 0 0 0 0 0 0 0 0 0 0 0 0 0 0.25 0"/><feBlend in2="shape" result="effect1_innerShadow_303_1254"/><feColorMatrix in="SourceAlpha" result="hardAlpha" values="0 0 0 0 0 0 0 0 0 0 0 0 0 0 0 0 0 0 127 0"/><feOffset/><feGaussianBlur stdDeviation="3.426"/><feComposite in2="hardAlpha" k2="-1" k3="1" operator="arithmetic"/><feColorMatrix values="0 0 0 0 0 0 0 0 0 0 0 0 0 0 0 0 0 0 0.07 0"/><feBlend in2="effect1_innerShadow_303_1254" result="effect2_innerShadow_303_1254"/></filter><filter id="c" width="15.935" height="19.561" x="-.86" y="0" color-interpolation-filters="sRGB" filterUnits="userSpaceOnUse"><feFlood flood-opacity="0" result="BackgroundImageFix"/><feBlend in="SourceGraphic" in2="BackgroundImageFix" result="shape"/><feColorMatrix in="SourceAlpha" result="hardAlpha" values="0 0 0 0 0 0 0 0 0 0 0 0 0 0 0 0 0 0 127 0"/><feOffset dx="-.86" dy="2.581"/><feGaussianBlur stdDeviation="2.581"/><feComposite in2="hardAlpha" k2="-1" k3="1" operator="arithmetic"/><feColorMatrix values="0 0 0 0 0.0447222 0 0 0 0 0.2576 0 0 0 0 0.670833 0 0 0 0.23 0"/><feBlend in2="shape" result="effect1_innerShadow_303_1254"/><feColorMatrix in="SourceAlpha" result="hardAlpha" values="0 0 0 0 0 0 0 0 0 0 0 0 0 0 0 0 0 0 127 0"/><feOffset/><feGaussianBlur stdDeviation="6.452"/><feComposite in2="hardAlpha" k2="-1" k3="1" operator="arithmetic"/><feColorMatrix values="0 0 0 0 0 0 0 0 0 0 0 0 0 0 0 0 0 0 0.25 0"/><feBlend in2="effect1_innerShadow_303_1254" result="effect2_innerShadow_303_1254"/><feColorMatrix in="SourceAlpha" result="hardAlpha" values="0 0 0 0 0 0 0 0 0 0 0 0 0 0 0 0 0 0 127 0"/><feOffset/><feGaussianBlur stdDeviation="3.011"/><feComposite in2="hardAlpha" k2="-1" k3="1" operator="arithmetic"/><feColorMatrix values="0 0 0 0 1 0 0 0 0 1 0 0 0 0 1 0 0 0 0.75 0"/><feBlend in2="effect2_innerShadow_303_1254" result="effect3_innerShadow_303_1254"/></filter></defs></svg>