<?xml version="1.0" encoding="UTF-8"?>
<svg height="16px" viewBox="0 0 16 16" width="16px" xmlns="http://www.w3.org/2000/svg">
    <g fill="#77767b">
        <path d="m 1 3 c 0 -1.101562 1.046875 -2 2 -2 h 6 l 2 9 h -10 z m 0 0"/>
        <path d="m 5.0625 6 l 0.738281 9 h 7.808594 c 0.6875 0 1.390625 -0.65625 1.390625 -1.46875 v -5.972656 c 0 -0.835938 -0.640625 -1.558594 -1.378906 -1.558594 z m 2.003906 2 h 5.871094 c 0.050781 0 0.0625 0.011719 0.0625 0.0625 v 4.871094 c 0 0.054687 -0.011719 0.066406 -0.0625 0.066406 h -5.871094 c 0.496094 -0.9375 -0.0625 0.914062 -0.0625 -0.066406 v -4.871094 c 0 -0.050781 0.011719 -0.0625 0.0625 -0.0625 z m 0 0"/>
        <path d="m 11 10 l -4 4 l -1.199219 1 l -1.214843 -5 z m 0 0"/>
    </g>
</svg>
