<?xml version="1.0" encoding="UTF-8"?>
<svg height="128px" viewBox="0 0 128 128" width="128px" xmlns="http://www.w3.org/2000/svg" xmlns:xlink="http://www.w3.org/1999/xlink">
 <linearGradient id="a" x1="58.922" x2="80.292" y1="99.983" y2="91.975" gradientUnits="userSpaceOnUse">
  <stop stop-color="#613583" offset="0"/>
  <stop stop-color="#8f57bb" offset=".09319"/>
  <stop stop-color="#8047ad" offset=".29741"/>
  <stop stop-color="#613583" offset="1"/>
 </linearGradient>
 <path d="m60 48h48.945c3.9102 0 7.0547 3.1445 7.0547 7.0547v53.891c0 3.9102-3.1445 7.0547-7.0547 7.0547h-38.945c-2 0-3.3086-0.59766-4.5-2z" fill="#deddda"/>
 <path d="m80 99c0.69922 1.7461 0.18359 4.1367-2 5l-9 6c-1.4805 0.73047-4 4 0 5.9492-3.4023-0.44531-4.125-2.8711-5-4.9492l-16-43 26 16z" fill="url(#a)"/>
 <path d="m82.254 68.457-3.2539-0.18359c0.035156 0.98828-0.035156 1.8633-0.18359 3.0352-0.074218 0.62109-0.21875 1.4258-0.36328 2.375h-0.625c-2.2266 0-5.0078-0.25781-6.9453-0.58594l0.039063 2.8516c2.1211 0.18359 4.4219 0.36719 6.9453 0.36719h0.035156c-0.91406 4.1289-2.375 9.3594-4.2383 13.012l2.7031 0.98828c0.36719-0.65625 0.69531-1.168 1.1328-1.7188 2.4492-2.8867 6.4727-4.3867 10.82-4.3867 4.2773 0 6.5078 2.1211 6.5078 4.8242 0 6.0352-8.1875 7.4609-16.668 6.2891l0.76562 2.9258c11.113 1.168 18.902-1.6445 18.902-9.2852 0-4.2422-3.4023-7.2383-9.2148-7.2383-3.8008 0-7.0898 0.91406-10.27 3.1445 0.76562-2.0859 1.6055-5.5586 2.2656-8.6289 4.6406-0.18359 10.234-0.76953 14.512-1.5352l-0.035156-2.7773c-4.4961 0.98437-9.6523 1.4961-13.93 1.6797 0.18359-0.80469 0.29297-1.5352 0.40234-2.082 0.21875-0.98828 0.40234-2.1211 0.69531-3.0703zm13.707-1.2812-1.9375 0.83984c0.98828 1.3555 2.2305 3.582 2.9609 5.082l1.9766-0.875c-0.73047-1.5-2.0859-3.7305-3-5.0469zm4.0586-1.4609-1.9375 0.83984c1.0234 1.3516 2.2305 3.4375 3.0352 5.043l1.9727-0.91016c-0.69531-1.3555-2.1211-3.6211-3.0703-4.9727z" fill="#77767b"/>
 <path d="m15.055 28h37.891c3.9102 0 5.6445 3.4102 7.0547 7.0547 2.332 6.7695 20 63.82 20 63.82-0.80469-1.7188-3-3-5-3h-59.945c-3.9102 0-7.0547-3.1445-7.0547-7.0547v-53.766c0-3.9102 3.1445-7.0547 7.0547-7.0547z" fill="#c061cb"/>
 <g transform="translate(25.688 75.999)" fill="#e8b3e9">
  <path d="m2.3125 0h11.328c8.2656 0 14.766-6.1406 14.766-13.875 0-7.8594-6.5-14.047-14.766-14.047h-11.328zm11.172-21.859c4.3906 0 7.8125 3.5156 7.8125 7.9844 0 4.375-3.4219 7.8125-7.8125 7.8125h-4.3125v-15.797z"/>
 </g>
</svg>
