<?xml version="1.0" encoding="UTF-8" standalone="no"?>
<svg
   xmlns:dc="http://purl.org/dc/elements/1.1/"
   xmlns:cc="http://creativecommons.org/ns#"
   xmlns:rdf="http://www.w3.org/1999/02/22-rdf-syntax-ns#"
   xmlns:svg="http://www.w3.org/2000/svg"
   xmlns="http://www.w3.org/2000/svg"
   xmlns:sodipodi="http://sodipodi.sourceforge.net/DTD/sodipodi-0.dtd"
   xmlns:inkscape="http://www.inkscape.org/namespaces/inkscape"
   sodipodi:docname="com.github.gi-lom.gnabel-symbolic.svg"
   inkscape:version="1.0 (4035a4fb49, 2020-05-01)"
   width="16.0px"
   height="16.0px"
   viewBox="0 0 16.0 16.0"
   version="1.1"
   id="SVGRoot">
  <defs
     id="defs842" />
  <sodipodi:namedview
     inkscape:window-maximized="0"
     inkscape:window-y="0"
     inkscape:window-x="0"
     inkscape:window-height="1002"
     inkscape:window-width="1599"
     showgrid="true"
     inkscape:document-rotation="0"
     inkscape:current-layer="layer1"
     inkscape:document-units="px"
     inkscape:cy="8.3284368"
     inkscape:cx="8.9545365"
     inkscape:zoom="3.959798"
     inkscape:pageshadow="2"
     inkscape:pageopacity="0.0"
     borderopacity="1.0"
     bordercolor="#666666"
     pagecolor="#ffffff"
     id="base">
    <inkscape:grid
       type="xygrid"
       id="grid1412" />
  </sodipodi:namedview>
  <metadata
     id="metadata845">
    <rdf:RDF>
      <cc:Work
         rdf:about="">
        <dc:format>image/svg+xml</dc:format>
        <dc:type
           rdf:resource="http://purl.org/dc/dcmitype/StillImage" />
        <dc:title></dc:title>
      </cc:Work>
    </rdf:RDF>
  </metadata>
  <g
     id="layer1"
     inkscape:groupmode="layer"
     inkscape:label="Layer 1">
    <path
       id="path1523"
       d="M 8.298059,6.9783736 C 8.334709,6.9557856 8.324534,6.8556236 8.265659,6.6594811 8.197371,6.4319686 8.1309341,6.3842149 8.0144691,6.4789174 c -0.047213,0.038387 -0.047213,0.038387 0.012,0.2687 0.072763,0.2829475 0.1207375,0.3237062 0.2715624,0.2307562 z"
       style="fill:#000000;stroke-width:0.18897638;stroke:#000000;stroke-miterlimit:4;stroke-dasharray:none;stroke-linejoin:bevel;stroke-linecap:round" />
    <path
       id="path1521"
       d="m 5.572122,7.3276436 c 0.023262,-0.02795 0.022462,-0.095937 -0.00437,-0.374675 -0.0348,-0.3609712 -0.045013,-0.386455 -0.150615,-0.3755437 -0.054988,0.00563 -0.054988,0.00563 -0.046862,0.367605 0.0045,0.1990575 0.018062,0.3742612 0.030187,0.3893412 0.030883,0.0384 0.1376075,0.034212 0.1716812,-0.00675 z"
       style="fill:#000000;stroke-width:0.18897638;stroke:#000000;stroke-miterlimit:4;stroke-dasharray:none;stroke-linejoin:bevel;stroke-linecap:round" />
    <path
       id="path1519"
       d="M 8.6893452,7.4440436 C 8.8055577,7.2992011 8.7589702,7.2723849 8.0695991,7.0873349 7.4212354,6.9132924 7.3914104,6.9100549 7.3564892,7.0099474 c -0.038588,0.1103625 -0.00788,0.1249 0.6241036,0.296015 0.6370674,0.17248 0.6751937,0.1799075 0.7087524,0.1380812 z"
       style="fill:#000000;stroke-width:0.18897638;stroke:#000000;stroke-miterlimit:4;stroke-dasharray:none;stroke-linejoin:bevel;stroke-linecap:round" />
    <path
       id="path1517"
       d="m 6.4025443,7.5208186 c 0.025613,-0.051462 -0.012125,-0.5913987 -0.046288,-0.6624912 -0.019913,-0.041425 -0.043838,-0.055875 -0.09255,-0.055875 -0.0657,0 -0.0657,0 -0.057662,0.350955 0.00437,0.1930262 0.018012,0.3632937 0.030187,0.378375 0.033288,0.0412 0.14398,0.0339 0.1663038,-0.011 z"
       style="fill:#000000;stroke-width:0.18897638;stroke:#000000;stroke-miterlimit:4;stroke-dasharray:none;stroke-linejoin:bevel;stroke-linecap:round" />
    <path
       id="path1515"
       d="M 8.4439478,7.8544361 C 8.4740852,7.7347111 8.4672228,7.7308486 7.9906128,7.5993811 7.4063117,7.4382099 7.3748804,7.4378624 7.3748804,7.5926311 c 0,0.0707 -0.00662,0.068 0.5149262,0.2082712 0.4860924,0.13072 0.5335649,0.1353088 0.5541412,0.053562 z"
       style="fill:#000000;stroke-width:0.18897638;stroke:#000000;stroke-miterlimit:4;stroke-dasharray:none;stroke-linejoin:bevel;stroke-linecap:round" />
    <path
       id="path1513"
       d="m 8.2862053,8.3801898 c 0.019013,-0.018963 0.034562,-0.062588 0.034562,-0.096938 0,-0.073887 -0.00238,-0.074825 -0.6019999,-0.2330312 -0.42345,-0.111725 -0.4586162,-0.1115875 -0.4720987,0.00188 -0.010875,0.091613 0.006,0.099562 0.4972287,0.233765 0.5272499,0.144055 0.4975711,0.1388937 0.5423024,0.094288 z"
       style="fill:#000000;stroke-width:0.18897638;stroke:#000000;stroke-miterlimit:4;stroke-dasharray:none;stroke-linejoin:bevel;stroke-linecap:round" />
    <path
       id="path1511"
       d="M 3.7234497,7.8954611 C 3.537171,7.8451361 3.5206348,7.8175986 3.5726698,7.6444186 c 0.03285,-0.109325 0.072375,-0.119175 0.2574649,-0.064213 0.17186,0.051038 0.19024,0.07545 0.1551937,0.2061812 -0.042437,0.1583138 -0.057075,0.16441 -0.2618787,0.1090743 z"
       style="fill:#000000;stroke-width:0.18897638;stroke:#000000;stroke-miterlimit:4;stroke-dasharray:none;stroke-linejoin:bevel;stroke-linecap:round" />
    <path
       id="path1509"
       d="M 4.3144309,8.0537336 C 4.1601484,8.0113211 4.1561272,8.0064461 4.1709397,7.8797748 c 0.019487,-0.166705 0.0622,-0.1937062 0.2327374,-0.1471575 0.1719638,0.046938 0.1865288,0.063125 0.1679588,0.1865988 -0.02475,0.164545 -0.0672,0.18675 -0.257205,0.1345175 z"
       style="fill:#000000;stroke-width:0.18897638;stroke:#000000;stroke-miterlimit:4;stroke-dasharray:none;stroke-linejoin:bevel;stroke-linecap:round" />
    <path
       id="path1507"
       d="M 3.549721,8.3957486 C 3.4090323,8.3523861 3.3886835,8.3137611 3.430796,8.1699761 c 0.033737,-0.1151875 0.070875,-0.13889 0.16937,-0.1081 0.037475,0.01175 0.1091875,0.031825 0.1593612,0.0447 0.108975,0.027962 0.1266988,0.063425 0.0921,0.1842537 -0.046212,0.161365 -0.0803,0.1732113 -0.3019012,0.1049125 z"
       style="fill:#000000;stroke-width:0.18897638;stroke:#000000;stroke-miterlimit:4;stroke-dasharray:none;stroke-linejoin:bevel;stroke-linecap:round" />
    <path
       id="path1505"
       d="m 4.1544309,8.5567023 c -0.1255187,-0.034363 -0.15,-0.062762 -0.131875,-0.1530112 0.0374,-0.1861988 0.0928,-0.2140575 0.2946712,-0.14817 0.1209375,0.039475 0.1209875,0.039525 0.1172125,0.1267312 -0.009,0.2084325 -0.05385,0.2363613 -0.2800087,0.17445 z"
       style="fill:#000000;stroke-width:0.18897638;stroke:#000000;stroke-miterlimit:4;stroke-dasharray:none;stroke-linejoin:bevel;stroke-linecap:round" />
    <path
       id="path1503"
       d="M 4.5023021,9.0099685 C 4.5338521,8.959056 4.8642058,7.6867086 4.8532571,7.6582586 4.8387321,7.6205336 4.8567571,7.6261711 4.1305084,7.4317511 3.7423647,7.3278386 3.579196,7.2749911 3.575266,7.2519074 c -0.0035,-0.02075 0.063075,-0.071538 0.1823525,-0.1390275 0.10335,-0.058488 0.2320387,-0.1399175 0.2859637,-0.1809613 0.1609625,-0.1225125 0.1846375,-0.097138 0.1208625,0.1295038 -0.065637,0.2332562 -0.061687,0.2696012 0.03265,0.3006487 0.097987,0.03225 0.1329037,0.00725 0.1651612,-0.1179875 0.1047625,-0.4068487 0.1063625,-0.4071775 0.3356787,-0.068738 0.1800287,0.2657088 0.2081525,0.2852575 0.2943012,0.2045575 0.0804,-0.075312 0.06355,-0.1178625 -0.1470662,-0.37143 -0.2652787,-0.3193737 -0.2620387,-0.3449862 0.033,-0.260855 0.2149574,0.0613 0.2705374,0.058238 0.2992249,-0.01645 0.0309,-0.08045 0.00375,-0.11935 -0.1087625,-0.1556262 C 4.9461945,6.5360549 4.949557,6.4908674 5.0871445,6.3266686 5.2046695,6.1864237 5.225587,6.1063049 5.154582,6.0684137 5.066432,6.0213762 5.0307445,6.0430637 4.9025246,6.2216549 4.7482383,6.4365349 4.6837621,6.4863961 4.6297833,6.4325711 c -0.034362,-0.034263 -0.032725,-0.052087 0.0249,-0.2720862 0.081338,-0.3104975 0.061525,-0.296425 0.3864312,-0.2745287 0.2956475,0.019925 0.3272287,0.010375 0.289865,-0.087612 -0.032375,-0.084925 -0.10795,-0.1255225 -0.2336287,-0.1255225 -0.0616,0 -0.2202487,-0.0143 -0.3525662,-0.031775 -0.2121287,-0.028026 -0.3445887,-0.048763 -0.7620512,-0.119338 -0.1130249,-0.019113 -0.1496662,-0.00109 -0.1491087,0.07325 7e-4,0.1003 0.056188,0.1259025 0.382755,0.176775 0.2727712,0.042488 0.2775687,0.0493 0.2126074,0.301655 -0.0775,0.3010524 -0.091662,0.3147037 -0.2642899,0.2546962 -0.0599,-0.020825 -0.0684,-0.03205 -0.053937,-0.071288 0.04845,-0.13135 0.010875,-0.4197637 -0.05755,-0.4414112 -0.11735,-0.037137 -0.1391737,-2.75e-4 -0.1253812,0.2120587 0.014712,0.2264975 0.00775,0.2355175 -0.1519888,0.1954225 -0.1294262,-0.0325 -0.1779162,-0.015813 -0.1962774,0.06755 -0.021,0.09535 0.00913,0.1150875 0.2867199,0.1875662 0.297005,0.077562 0.3160562,0.1086125 0.1382312,0.2252338 -0.1288737,0.084525 -0.4725574,0.2615262 -0.5836811,0.3006075 -0.083125,0.029237 -0.095275,0.1052125 -0.0385,0.2407162 0.04765,0.1137125 0.048575,0.1082625 -0.133715,0.7906025 -0.091688,0.343225 -0.1612025,0.63836 -0.15447,0.6558537 0.034763,0.090338 0.17807,0.071637 0.20276,-0.026462 0.024663,-0.097963 0.076875,-0.095275 0.5318074,0.027412 0.4696212,0.126645 0.4681424,0.1259388 0.4802637,0.2297337 0.011,0.093887 0.15039,0.15756 0.1933232,0.088287 z"
       style="fill:#000000;stroke-width:0.18897638;stroke:#000000;stroke-miterlimit:4;stroke-dasharray:none;stroke-linejoin:bevel;stroke-linecap:round" />
    <path
       id="path1501"
       d="m 5.3167995,9.226741 c 0.0311,-0.01175 0.07185,-0.053737 0.090563,-0.093225 0.066,-0.13931 0.8186356,-2.9656448 0.7995669,-3.0025986 -0.016312,-0.031613 -0.3649112,-0.1419537 -0.5908387,-0.1870112 -0.088888,-0.017725 -0.13299,0.028125 -0.13299,0.13828 0,0.068937 0.00537,0.073437 0.1264862,0.1068875 0.2947437,0.081375 0.3021475,0.0847 0.309905,0.1394149 0.014362,0.101275 -0.3091437,1.2572062 -0.3702462,1.32295 -0.030325,0.032625 -0.1879662,0.1420712 -0.3503049,0.2432 -0.30448,0.1896762 -0.346665,0.2350625 -0.301835,0.3247262 0.041113,0.082237 0.07825,0.073875 0.2990012,-0.067263 C 5.5141257,7.9487693 5.510307,7.9421531 5.3722457,8.4573443 5.208982,9.0665818 5.2347795,9.015138 5.1010133,8.9982305 c -0.2285087,-0.028887 -0.2221875,-0.02995 -0.23006,0.038737 -0.013225,0.1154 0.01175,0.16128 0.100575,0.1847988 0.10995,0.029113 0.27533,0.0315 0.3452837,0.005 z"
       style="fill:#000000;stroke-width:0.18897638;stroke:#000000;stroke-miterlimit:4;stroke-dasharray:none;stroke-linejoin:bevel;stroke-linecap:round" />
    <path
       id="path1499"
       d="M 6.1418169,9.4397348 C 6.2356168,9.3923973 6.2619543,9.3106573 6.6614193,7.8271911 6.9998967,6.5701824 7.0486492,6.3691924 7.021418,6.3429674 6.9777555,6.3009174 6.4147318,6.1499749 6.3628156,6.1664062 c -0.051475,0.016288 -0.08425,0.1546674 -0.045825,0.1935099 0.014025,0.014175 0.111775,0.050463 0.2172312,0.080612 0.1756437,0.050237 0.1923025,0.0598 0.1985762,0.114 0.00812,0.070087 -0.2931812,1.2133662 -0.3381362,1.2830675 -0.031663,0.0491 -0.2115437,0.1720125 -0.4774299,0.3262437 -0.159205,0.09235 -0.19413,0.1480375 -0.1514362,0.24147 0.0351,0.076812 0.079925,0.066562 0.2875287,-0.065725 0.16159,-0.1029625 0.2437974,-0.1305025 0.2436249,-0.081613 -1.375e-4,0.065713 -0.2474887,0.9174125 -0.2740112,0.9438575 -0.0312,0.031113 -0.047162,0.030975 -0.1716374,-0.0015 -0.1803713,-0.047025 -0.2223963,-0.01175 -0.178835,0.1502125 0.02515,0.093513 0.3416012,0.1536275 0.4693474,0.089163 z"
       style="fill:#000000;stroke-width:0.18897638;stroke:#000000;stroke-miterlimit:4;stroke-dasharray:none;stroke-linejoin:bevel;stroke-linecap:round" />
    <path
       id="path1497"
       d="m 12.165363,10.019423 c 0.01541,-0.0098 0.09138,-0.2440295 0.168799,-0.5206145 0.07743,-0.2765837 0.191095,-0.6750275 0.252597,-0.8854299 0.128894,-0.4409463 0.128485,-0.4475288 -0.03063,-0.4936488 -0.151571,-0.043938 -0.180576,-0.030775 -0.219396,0.099575 -0.10465,0.351395 -0.430133,1.6969987 -0.418965,1.732085 0.01905,0.059837 0.187421,0.1061122 0.247585,0.068037 z"
       style="fill:#000000;stroke-width:0.18897638;stroke:#000000;stroke-miterlimit:4;stroke-dasharray:none;stroke-linejoin:bevel;stroke-linecap:round" />
    <path
       id="path1495"
       d="M 9.6186252,8.3370623 C 9.3827026,8.2722998 9.1685839,8.2140123 9.1428089,8.2075511 c -0.075888,-0.019038 -0.073688,-0.079688 0.014475,-0.3998125 0.04595,-0.166855 0.094537,-0.3447275 0.1079625,-0.3952712 0.034862,-0.1313113 0.058887,-0.1316325 0.5222108,-0.007 0.5378548,0.1446925 0.5529298,0.14984 0.5665338,0.1934662 0.01616,0.05185 -0.1952,0.8164575 -0.232154,0.8397975 -0.04162,0.026287 -0.02419,0.029812 -0.5032098,-0.101675 z"
       style="fill:#000000;stroke-width:0.18897638;stroke:#000000;stroke-miterlimit:4;stroke-dasharray:none;stroke-linejoin:bevel;stroke-linecap:round" />
    <path
       id="path1493"
       d="M 7.4432817,9.4165485 C 7.1358067,9.3310615 7.140148,9.3393615 7.2299167,9.009036 c 0.0828,-0.3046637 0.075125,-0.3004912 0.3966624,-0.2157337 0.3323425,0.087613 0.322005,0.071463 0.243925,0.3810525 -0.08995,0.356695 -0.065425,0.3427862 -0.4272224,0.2421937 z"
       style="fill:#000000;stroke-width:0.18897638;stroke:#000000;stroke-miterlimit:4;stroke-dasharray:none;stroke-linejoin:bevel;stroke-linecap:round" />
    <path
       id="path1491"
       d="m 10.020472,10.442832 c 0.09902,-0.0671 0.101313,-0.0971 0.01737,-0.227604 C 9.8319762,9.8951573 9.7299722,9.465556 9.7289862,8.914446 c -4.25e-4,-0.2722262 0.0057,-0.2768087 0.2764098,-0.2025612 0.292821,0.080337 0.3092,0.07745 0.348511,-0.061425 0.123113,-0.4349187 0.320591,-1.1893924 0.320591,-1.2248637 0,-0.02355 -0.02228,-0.052475 -0.0495,-0.0643 C 10.513028,7.3126711 9.1789264,6.9682486 9.1481576,6.9800211 9.1072827,6.9956586 9.1074452,6.9951336 8.9149489,7.7186748 8.716819,8.4633786 8.6191552,8.7491823 8.4402428,9.1078623 8.2680678,9.4530348 8.0530078,9.7342823 8.0009416,9.6823635 7.9904416,9.6718635 8.1690228,8.952931 8.221364,8.7951686 8.242789,8.7305936 8.157364,8.6942686 7.6887841,8.5686873 7.4198342,8.4966003 7.1852155,8.4432073 7.1674067,8.4500248 7.1279687,8.4651118 7.1248947,8.4748128 6.9559805,9.115626 6.8203618,9.630141 6.8203618,9.630141 6.8704305,9.6705698 c 0.06525,0.052688 0.1571625,0.041638 0.1852787,-0.022275 0.034762,-0.079025 0.071562,-0.0771 0.4529874,0.023688 0.3611162,0.095425 0.3611162,0.095425 0.4319662,0.2019875 0.1190875,0.1791167 0.1419875,0.1769067 0.3214512,-0.031 0.2521362,-0.292098 0.5000875,-0.7529068 0.6531412,-1.213838 0.059737,-0.1799137 0.074525,-0.1859062 0.3111324,-0.1261612 0.2884275,0.072825 0.2679212,0.033912 0.2722162,0.5166762 0.00513,0.5749037 0.065212,0.88918 0.2341214,1.2243537 0.137062,0.271975 0.15822,0.286595 0.2877358,0.198839 z"
       style="fill:#000000;stroke-width:0.18897638;stroke:#000000;stroke-miterlimit:4;stroke-dasharray:none;stroke-linejoin:bevel;stroke-linecap:round" />
    <path
       id="path1489"
       d="m 11.967741,10.769556 c 0.182885,-0.04885 0.110862,-0.358836 -0.08338,-0.358836 -0.08432,0 -0.197979,0.103262 -0.197979,0.179877 0,0.130253 0.137135,0.21748 0.28135,0.178959 z"
       style="fill:#000000;stroke-width:0.18897638;stroke:#000000;stroke-miterlimit:4;stroke-dasharray:none;stroke-linejoin:bevel;stroke-linecap:round" />
    <path
       id="path318"
       d="m 10.839487,15.485849 c -0.0242,-0.0047 -0.09844,-0.01924 -0.164981,-0.0322 C 10.607968,15.440687 9.3557551,15.110998 7.8918216,14.720994 5.2301233,14.011893 5.2301233,14.011893 4.1412472,13.998877 2.4616024,13.978802 1.4934151,13.961702 1.4614251,13.951564 1.4088626,13.934914 1.4432001,13.885177 1.7325213,13.559098 2.049665,13.201646 2.0679012,13.161212 1.9304988,13.120107 1.5668301,13.01132 1.1082176,12.656258 0.85934515,12.290825 0.59491145,11.90254 0.50288394,11.586421 0.50358019,11.068756 0.50413019,10.649255 0.31136272,11.397121 2.6790999,2.629145 2.7861874,2.2325851 2.8959774,1.8750238 2.9394736,1.7811463 3.2677986,1.0725589 3.9050647,0.61101265 4.6852908,0.51672015 5.0690833,0.47034515 5.175037,0.49134515 6.9564117,0.96708262 7.8338466,1.2014101 9.7940552,1.7248926 11.312433,2.1303788 c 3.001562,0.8015712 2.992854,0.7988387 3.321861,1.0420475 0.386504,0.28571 0.688185,0.7266649 0.817744,1.1952674 0.04162,0.150535 0.04844,0.2300413 0.04794,0.559335 -5e-4,0.3838587 -5e-4,0.3838587 -1.171687,4.7379036 -0.644109,2.3947247 -1.199556,4.4216187 -1.234326,4.5042067 -0.238375,0.56618 -0.737669,1.02677 -1.320201,1.217859 -0.276331,0.09065 -0.731031,0.138753 -0.934271,0.09885 z"
       style="fill:none;stroke-width:0.56692913;stroke:#000000;stroke-miterlimit:4;stroke-dasharray:none;stroke-linejoin:bevel;stroke-linecap:round" />
  </g>
</svg>
