<?xml version="1.0" encoding="UTF-8"?>
<svg height="128px" viewBox="0 0 128 128" width="128px" xmlns="http://www.w3.org/2000/svg" xmlns:xlink="http://www.w3.org/1999/xlink">
    <linearGradient id="a" gradientUnits="userSpaceOnUse" x1="58.922295" x2="80.291817" y1="99.982971" y2="91.974609">
        <stop offset="0" stop-color="#613583"/>
        <stop offset="0.0931896" stop-color="#8f57bb"/>
        <stop offset="0.297407" stop-color="#8047ad"/>
        <stop offset="1" stop-color="#613583"/>
    </linearGradient>
    <symbol id="b" overflow="visible">
        <path d="m 2.3125 0 h 11.328125 c 8.265625 0 14.765625 -6.140625 14.765625 -13.875 c 0 -7.859375 -6.5 -14.046875 -14.765625 -14.046875 h -11.328125 z m 11.171875 -21.859375 c 4.390625 0 7.8125 3.515625 7.8125 7.984375 c 0 4.375 -3.421875 7.8125 -7.8125 7.8125 h -4.3125 v -15.796875 z m 0 0"/>
    </symbol>
    <path d="m 60 48 h 48.945312 c 3.910157 0 7.054688 3.144531 7.054688 7.054688 v 53.890624 c 0 3.910157 -3.144531 7.054688 -7.054688 7.054688 h -38.945312 c -2 0 -3.308594 -0.597656 -4.5 -2 z m 0 0" fill="#deddda"/>
    <path d="m 80 99 c 0.699219 1.746094 0.183594 4.136719 -2 5 l -9 6 c -1.480469 0.730469 -4 4 0 5.949219 c -3.402344 -0.445313 -4.125 -2.871094 -5 -4.949219 l -16 -43 l 26 16 z m 0 0" fill="url(#a)"/>
    <path d="m 82.253906 68.457031 l -3.253906 -0.183593 c 0.035156 0.988281 -0.035156 1.863281 -0.183594 3.035156 c -0.074218 0.621094 -0.21875 1.425781 -0.363281 2.375 c -0.222656 0 -0.441406 0 -0.625 0 c -2.226563 0 -5.007813 -0.257813 -6.945313 -0.585938 l 0.039063 2.851563 c 2.121094 0.183593 4.421875 0.367187 6.945313 0.367187 h 0.035156 c -0.914063 4.128906 -2.375 9.359375 -4.238282 13.011719 l 2.703126 0.988281 c 0.367187 -0.65625 0.695312 -1.167968 1.132812 -1.71875 c 2.449219 -2.886718 6.472656 -4.386718 10.820312 -4.386718 c 4.277344 0 6.507813 2.121093 6.507813 4.824218 c 0 6.035156 -8.1875 7.460938 -16.667969 6.289063 l 0.765625 2.925781 c 11.113281 1.167969 18.902344 -1.644531 18.902344 -9.285156 c 0 -4.242188 -3.402344 -7.238282 -9.214844 -7.238282 c -3.800781 0 -7.089843 0.914063 -10.269531 3.144532 c 0.765625 -2.085938 1.605469 -5.558594 2.265625 -8.628906 c 4.640625 -0.183594 10.234375 -0.769532 14.511719 -1.535157 l -0.035156 -2.777343 c -4.496094 0.984374 -9.652344 1.496093 -13.929688 1.679687 c 0.183594 -0.804687 0.292969 -1.535156 0.402344 -2.082031 c 0.21875 -0.988282 0.402344 -2.121094 0.695312 -3.070313 z m 13.707032 -1.28125 l -1.9375 0.839844 c 0.988281 1.355469 2.230468 3.582031 2.960937 5.082031 l 1.976563 -0.875 c -0.730469 -1.5 -2.085938 -3.730468 -3 -5.046875 z m 4.058593 -1.460937 l -1.9375 0.839844 c 1.023438 1.351562 2.230469 3.4375 3.035157 5.042968 l 1.972656 -0.910156 c -0.695313 -1.355469 -2.121094 -3.621094 -3.070313 -4.972656 z m 0 0" fill="#77767b"/>
    <path d="m 15.054688 28 h 37.890624 c 3.910157 0 5.644532 3.410156 7.054688 7.054688 c 2.332031 6.769531 20 63.820312 20 63.820312 c -0.804688 -1.71875 -3 -3 -5 -3 h -59.945312 c -3.910157 0 -7.054688 -3.144531 -7.054688 -7.054688 v -53.765624 c 0 -3.910157 3.144531 -7.054688 7.054688 -7.054688 z m 0 0" fill="#c061cb"/>
    <use fill="#e8b3e9" x="25.6875" xlink:href="#b" y="75.999023"/>
</svg>
