<?xml version="1.0" encoding="UTF-8"?>
<svg height="128px" viewBox="0 0 128 128" width="128px" xmlns="http://www.w3.org/2000/svg" xmlns:xlink="http://www.w3.org/1999/xlink">
    <linearGradient id="a" gradientUnits="userSpaceOnUse" x1="58.922295" x2="80.291817" y1="99.982971" y2="91.974609">
        <stop offset="0" stop-color="#613583"/>
        <stop offset="0.0931896" stop-color="#8f57bb"/>
        <stop offset="0.297407" stop-color="#8047ad"/>
        <stop offset="1" stop-color="#613583"/>
    </linearGradient>
    <symbol id="b" overflow="visible">
        <path d="m 2.3125 0 h 11.328125 c 8.265625 0 14.765625 -6.140625 14.765625 -13.875 c 0 -7.859375 -6.5 -14.046875 -14.765625 -14.046875 h -11.328125 z m 11.171875 -21.859375 c 4.390625 0 7.8125 3.515625 7.8125 7.984375 c 0 4.375 -3.421875 7.8125 -7.8125 7.8125 h -4.3125 v -15.796875 z m 0 0"/>
    </symbol>
    <path d="m 60 48 h 48.945312 c 3.910157 0 7.054688 3.144531 7.054688 7.054688 v 53.890624 c 0 3.910157 -3.144531 7.054688 -7.054688 7.054688 h -38.945312 c -2 0 -3.308594 -0.597656 -4.5 -2 z m 0 0" fill="#deddda"/>
    <path d="m 80 99 c 0.699219 1.746094 0.183594 4.136719 -2 5 l -9 6 c -1.480469 0.730469 -4 4 0 5.949219 c -3.402344 -0.445313 -4.125 -2.871094 -5 -4.949219 l -16 -43 l 26 16 z m 0 0" fill="url(#a)"/>
    <path d="m 84.601562 61.199219 l -3.363281 -0.078125 c 0.042969 0.480468 -0.039062 1.199218 -0.078125 1.917968 c -0.082031 0.882813 -0.199218 1.921876 -0.320312 3.082032 c -0.917969 0.039062 -1.800782 0.039062 -2.71875 0.039062 c -1.722656 0 -5.199219 -0.28125 -6.601563 -0.519531 l 0.082031 3 c 1.636719 0.121094 4.757813 0.28125 6.476563 0.28125 c 0.800781 0 1.601563 0 2.441406 -0.042969 c -0.160156 1.882813 -0.359375 3.882813 -0.441406 5.882813 c -5.519531 2.558593 -10 7.796875 -10 12.957031 c 0 3.402344 2.082031 5.042969 4.722656 5.042969 c 2.199219 0 4.597657 -0.882813 6.800781 -2.203125 c 0.199219 0.800781 0.398438 1.5625 0.636719 2.242187 l 2.882813 -0.878906 c -0.320313 -1 -0.640625 -2.082031 -0.960938 -3.242187 c 3.398438 -2.878907 6.640625 -7.320313 8.917969 -13 c 3.722656 1.082031 5.761719 3.800781 5.761719 6.839843 c 0 5.199219 -4.480469 8.921875 -11.71875 9.679688 l 1.71875 2.679687 c 9.28125 -1.480468 13.082031 -6.4375 13.082031 -12.199218 c 0 -4.398438 -2.960937 -8.078126 -7.960937 -9.398438 c 0 -0.082031 0.039062 -0.121094 0.039062 -0.160156 c 0.199219 -0.640625 0.558594 -1.722656 0.800781 -2.28125 l -3.160156 -0.800782 c -0.039063 0.679688 -0.242187 1.722657 -0.441406 2.320313 c -0.039063 0.160156 -0.078125 0.28125 -0.121094 0.402344 c -0.476563 -0.042969 -0.957031 -0.042969 -1.476563 -0.042969 c -2.042968 0 -4.480468 0.359375 -6.722656 1 c 0.121094 -1.679688 0.242188 -3.359375 0.441406 -4.917969 c 4.878907 -0.242187 10.199219 -0.800781 14.398438 -1.519531 l -0.039062 -2.960938 c -4.078126 0.960938 -8.960938 1.480469 -14.039063 1.71875 c 0.160156 -1.160156 0.320313 -2.199218 0.480469 -3.039062 c 0.117187 -0.558594 0.277344 -1.28125 0.480468 -1.800781 z m -1.839843 16.960937 c 0 -0.558594 0 -1.082031 0.039062 -1.640625 c 1.839844 -0.679687 4.160157 -1.28125 6.757813 -1.28125 h 0.679687 c -1.679687 4.480469 -4.117187 7.722657 -6.796875 10.242188 c -0.402344 -2.320313 -0.679687 -4.761719 -0.679687 -7.320313 z m -9.640625 9.039063 c 0 -3.277344 2.957031 -7.238281 6.839844 -9.4375 v 0.71875 c 0 3 0.398437 6.238281 0.960937 9.078125 c -2.042969 1.441406 -3.960937 2.121094 -5.523437 2.121094 c -1.519532 0 -2.277344 -0.839844 -2.277344 -2.480469 z m 0 0" fill="#77767b"/>
    <path d="m 15.054688 28 h 37.890624 c 3.910157 0 5.644532 3.410156 7.054688 7.054688 c 2.332031 6.769531 20 63.820312 20 63.820312 c -0.804688 -1.71875 -3 -3 -5 -3 h -59.945312 c -3.910157 0 -7.054688 -3.144531 -7.054688 -7.054688 v -53.765624 c 0 -3.910157 3.144531 -7.054688 7.054688 -7.054688 z m 0 0" fill="#c061cb"/>
    <use fill="#e8b3e9" x="25.6875" xlink:href="#b" y="75.999023"/>
</svg>
