<?xml version="1.0" encoding="UTF-8" standalone="no"?>
<svg
   xmlns:dc="http://purl.org/dc/elements/1.1/"
   xmlns:cc="http://creativecommons.org/ns#"
   xmlns:rdf="http://www.w3.org/1999/02/22-rdf-syntax-ns#"
   xmlns:svg="http://www.w3.org/2000/svg"
   xmlns="http://www.w3.org/2000/svg"
   xmlns:sodipodi="http://sodipodi.sourceforge.net/DTD/sodipodi-0.dtd"
   xmlns:inkscape="http://www.inkscape.org/namespaces/inkscape"
   version="1.1"
   id="svg302"
   width="231.36"
   height="231.67999"
   viewBox="0 0 231.36 231.67999"
   sodipodi:docname="icon.svg"
   inkscape:version="1.0 (4035a4fb49, 2020-05-01)">
  <metadata
     id="metadata308">
    <rdf:RDF>
      <cc:Work
         rdf:about="">
        <dc:format>image/svg+xml</dc:format>
        <dc:type
           rdf:resource="http://purl.org/dc/dcmitype/StillImage" />
        <dc:title />
      </cc:Work>
    </rdf:RDF>
  </metadata>
  <defs
     id="defs306" />
  <sodipodi:namedview
     inkscape:document-rotation="0"
     pagecolor="#ffffff"
     bordercolor="#666666"
     borderopacity="1"
     objecttolerance="10"
     gridtolerance="10"
     guidetolerance="10"
     inkscape:pageopacity="0"
     inkscape:pageshadow="2"
     inkscape:window-width="2560"
     inkscape:window-height="972"
     id="namedview304"
     showgrid="false"
     inkscape:zoom="2.7149517"
     inkscape:cx="115.68"
     inkscape:cy="115.47167"
     inkscape:window-x="0"
     inkscape:window-y="30"
     inkscape:window-maximized="1"
     inkscape:current-layer="layer1" />
  <g
     inkscape:label="Image 1"
     id="layer1"
     inkscape:groupmode="layer">
    <rect
       y="70.351158"
       x="40.516373"
       height="104.97424"
       width="151.01558"
       id="rect8"
       style="fill:#ffffff;stroke:#ffffff" />
  </g>
  <g
     inkscape:groupmode="layer"
     inkscape:label="Image"
     id="g310">
    <path
       style="fill:#3771c8;stroke-width:0.32"
       d="m 158.20998,225.96137 c -0.352,-0.0693 -1.432,-0.28068 -2.4,-0.46969 -0.968,-0.18902 -19.184,-4.99886 -40.48,-10.68854 -38.72,-10.34486 -38.72,-10.34486 -54.56,-10.53477 -24.43398,-0.29296 -38.5183,-0.54231 -38.98365,-0.69018 -0.7647,-0.24298 -0.26503,-0.96844 3.94365,-5.72559 4.61354,-5.21477 4.87881,-5.80467 2.88,-6.40433 -5.29031,-1.58713 -11.9618,-6.76696 -15.58217,-12.09819 -3.8467601,-5.66459 -5.1854901,-10.27636 -5.1753601,-17.82844 0.008,-6.11998 -2.7962,4.79043 31.6475201,-123.123194 C 41.0578,32.613124 42.6549,27.396757 43.28766,26.027215 48.06383,15.689828 57.33421,8.9564493 68.68425,7.5808455 c 5.58305,-0.6766557 7.12438,-0.370137 33.03823,6.5702105 12.76412,3.418538 41.2795,11.055491 63.3675,16.971006 43.66404,11.69392 43.53735,11.654064 48.32347,15.20216 5.62251,4.16814 10.01108,10.601119 11.8958,17.437429 0.60545,2.196109 0.70457,3.356013 0.69731,8.16 -0.008,5.6 -0.008,5.6 -17.04466,69.119989 -9.3699,34.936 -17.45005,64.50581 -17.95588,65.71069 -3.46765,8.25985 -10.73094,14.97927 -19.20509,17.76703 -4.01981,1.32241 -10.6344,2.02422 -13.59095,1.44201 z M 174.6228,157.1566 c 2.66045,-0.71267 1.61275,-5.23496 -1.21282,-5.23496 -1.22668,0 -2.88,1.50646 -2.88,2.62419 0,1.90022 1.99491,3.17275 4.09282,2.61077 z m -28.3271,-4.76649 c 1.44056,-0.97889 1.47387,-1.41649 0.25277,-3.32045 -2.99475,-4.66943 -4.4786,-10.93676 -4.49294,-18.97676 -0.007,-3.97141 0.0839,-4.03828 4.02096,-2.95509 4.25969,1.17196 4.49794,1.12984 5.06983,-0.89617 1.79101,-6.3449 4.66366,-17.35172 4.66366,-17.8692 0,-0.34349 -0.324,-0.76561 -0.72,-0.93806 -1.62897,-0.7094 -21.03625,-5.73408 -21.48384,-5.56233 -0.5946,0.22817 -0.59218,0.22048 -3.3925,10.77602 -2.88223,10.86428 -4.30295,15.0338 -6.90561,20.26647 -2.50465,5.03565 -5.63314,9.13868 -6.39056,8.38126 -0.15326,-0.15326 2.44509,-10.64151 3.20651,-12.94305 0.31165,-0.94202 -0.93108,-1.472 -7.74751,-3.30408 -3.91243,-1.05156 -7.32546,-1.83059 -7.58452,-1.73118 -0.57373,0.22016 -0.61851,0.36154 -3.07565,9.71027 -1.97285,7.50611 -1.97285,7.50611 -1.24445,8.09593 0.94915,0.76858 2.28626,0.60736 2.69527,-0.32496 0.50572,-1.15281 1.04106,-1.12474 6.58967,0.34561 5.25319,1.39206 5.25319,1.39206 6.28384,2.94672 1.73231,2.6131 2.06551,2.58087 4.6762,-0.45226 3.66784,-4.26134 7.27482,-10.98396 9.5013,-17.70836 0.86906,-2.62472 1.08405,-2.71215 4.52609,-1.84054 4.19578,1.06248 3.89748,0.49468 3.95996,7.53766 0.0744,8.38709 0.94862,12.972 3.40579,17.86177 1.99386,3.96775 2.30164,4.18105 4.18573,2.90078 z m -37.49069,-14.97216 c -4.47287,-1.24714 -4.40971,-1.12615 -3.10382,-5.9451 1.20446,-4.44464 1.09289,-4.38378 5.77027,-3.14727 4.83464,1.27809 4.68424,1.04247 3.54842,5.55907 -1.30861,5.20372 -0.9517,5.0008 -6.21487,3.5333 z m 31.64497,-15.74834 c -3.432,-0.94482 -6.54679,-1.79505 -6.92176,-1.88941 -1.10391,-0.27778 -1.07196,-1.16247 0.21063,-5.83274 0.66851,-2.4342 1.3752,-5.02913 1.57044,-5.76652 0.50719,-1.91565 0.85662,-1.92034 7.59666,-0.10196 7.82424,2.11088 8.04353,2.18599 8.24143,2.82243 0.23521,0.75641 -2.83959,11.91108 -3.37716,12.25158 -0.60556,0.38358 -0.35191,0.43497 -7.32024,-1.48338 z m 37.04766,24.54352 c 0.22421,-0.1423 1.3292,-3.5601 2.45553,-7.59511 1.12632,-4.03501 2.77988,-9.84779 3.67457,-12.91729 1.87502,-6.43286 1.86908,-6.52889 -0.44543,-7.20173 -2.20493,-0.64099 -2.62688,-0.44894 -3.19158,1.45261 -1.52239,5.12643 -6.25721,24.75707 -6.09475,25.26893 0.27708,0.87303 2.72644,1.54804 3.60166,0.99259 z m -87.62517,-8.45692 c 1.36458,-0.69059 1.74774,-1.88309 7.55871,-23.52498 4.92389,-18.338143 5.63307,-21.270342 5.23695,-21.65294 -0.6352,-0.613529 -8.82552,-2.815513 -9.58077,-2.575808 -0.7489,0.237693 -1.22555,2.256419 -0.66657,2.823072 0.20406,0.206851 1.6261,0.736096 3.1601,1.176096 2.55511,0.732886 2.79745,0.8724 2.88871,1.66303 0.11803,1.022535 -4.26495,17.70147 -4.9189,18.71834 -0.46061,0.71622 -3.07737,2.50944 -6.94524,4.75947 -2.31595,1.34724 -2.82401,2.15968 -2.20295,3.52275 0.51055,1.12054 1.1627,0.97105 4.18271,-0.9588 2.35066,-1.50212 3.54655,-1.90386 3.54404,-1.19056 -0.003,0.95864 -3.60025,13.38388 -3.98607,13.7697 -0.45394,0.45394 -0.68601,0.45194 -2.49683,-0.0215 -2.62387,-0.68608 -3.23524,-0.17109 -2.60154,2.19142 0.36594,1.36421 4.96932,2.24123 6.82765,1.30076 z m -12.00161,-3.1073 c 0.4524,-0.172 1.04519,-0.784 1.31733,-1.36 0.96018,-2.03235 11.90878,-43.264988 11.6314,-43.804089 -0.23732,-0.461251 -5.30842,-2.070934 -8.595,-2.728249 -1.29308,-0.258618 -1.93461,0.41033 -1.93461,2.017299 0,1.005744 0.0774,1.071325 1.84,1.559318 4.28766,1.187069 4.39537,1.235661 4.50821,2.033882 0.20889,1.477561 -4.49714,18.341049 -5.38601,19.300149 -0.44121,0.47606 -2.73436,2.07266 -5.0959,3.548 -4.4293,2.76714 -5.04298,3.42925 -4.39083,4.73732 0.59811,1.19969 1.1382,1.07783 4.3496,-0.98132 4.62623,-2.96635 4.57069,-3.06288 2.5623,4.45312 -2.375,8.888 -1.99973,8.1375 -3.94565,7.89083 -3.32412,-0.42138 -3.23219,-0.4369 -3.3467,0.56514 -0.1924,1.68353 0.17081,2.35287 1.46298,2.696 1.59946,0.42473 4.00525,0.45951 5.02288,0.0726 z m -11.84857,-3.16245 c 0.459,-0.74268 5.26464,-19.30468 5.10536,-19.71973 -0.21122,-0.55045 0.0507,-0.46812 -10.51388,-3.30445 -5.64637,-1.51592 -8.02,-2.28694 -8.07718,-2.62371 -0.0514,-0.30271 0.91763,-1.04361 2.6527,-2.02822 1.50352,-0.85321 3.37549,-2.04121 4.15995,-2.64 2.34152,-1.787318 2.68595,-1.417199 1.75814,1.8893 -0.95486,3.40292 -0.89744,3.93314 0.47499,4.38608 1.42532,0.4704 1.93335,0.10642 2.40262,-1.72136 1.52388,-5.935392 1.54732,-5.940205 4.88313,-1.00272 2.6189,3.87636 3.02803,4.16154 4.28124,2.98422 1.16957,-1.09876 0.92452,-1.71944 -2.13938,-5.41868 -3.85904,-4.659262 -3.81191,-5.032916 0.48,-3.80554 3.12703,0.894249 3.93555,0.84967 4.35285,-0.24 0.44948,-1.173683 0.054,-1.741171 -1.58221,-2.270365 -1.78119,-0.576089 -1.73229,-1.235238 0.26936,-3.630761 1.7096,-2.046003 2.01395,-3.214819 0.98104,-3.767616 -1.2823,-0.686263 -1.80139,-0.369776 -3.66672,2.2356 -2.2444,3.134819 -3.18236,3.86224 -3.9676,3.076998 -0.49987,-0.499869 -0.47615,-0.75984 0.36222,-3.969379 1.18322,-4.529782 0.89505,-4.32447 5.62145,-4.005046 4.30082,0.290659 4.76023,0.151395 4.21669,-1.278215 -0.47102,-1.238889 -1.57035,-1.831215 -3.39862,-1.831215 -0.89603,0 -3.20399,-0.208637 -5.1288,-0.463636 -3.08587,-0.408819 -5.01278,-0.711446 -11.08566,-1.741033 -1.64421,-0.278759 -2.1772,-0.01616 -2.1691,1.068669 0.0109,1.463273 0.81732,1.836767 5.56799,2.57894 3.96801,0.619904 4.03782,0.719226 3.09282,4.400762 -1.12734,4.391951 -1.33341,4.59111 -3.84466,3.715686 -0.87146,-0.303795 -0.99507,-0.467661 -0.78455,-1.04 0.70485,-1.916221 0.15781,-6.123808 -0.83724,-6.439625 -1.70714,-0.541824 -2.02459,-0.0034 -1.82394,3.093676 0.21408,3.304304 0.11202,3.435901 -2.21101,2.850954 -1.88277,-0.47409 -2.58816,-0.230627 -2.85526,0.985488 -0.30552,1.390998 0.13334,1.678912 4.17095,2.736364 4.32056,1.131552 4.59771,1.584436 2.01086,3.285863 -1.87473,1.233049 -6.87434,3.815321 -8.49086,4.385481 -1.20927,0.42652 -1.38601,1.53484 -0.56,3.51176 0.69314,1.65891 0.70656,1.57935 -1.94516,11.53387 -1.33385,5.00722 -2.34504,9.31286 -2.2471,9.56809 0.50573,1.3179 2.5904,1.04504 2.94958,-0.38606 0.35868,-1.42912 1.11825,-1.38985 7.73626,0.39998 6.83161,1.8476 6.81012,1.83729 6.98643,3.35153 0.15947,1.36962 2.18775,2.29859 2.8123,1.28805 z m -5.06053,-6.61258 c -1.82593,-0.50128 -2.18205,-0.91566 -1.91839,-2.23224 0.544,-2.7164 1.34998,-3.12283 4.28661,-2.1616 1.75928,0.57585 1.75998,0.57661 1.70508,1.84884 -0.13121,3.04075 -0.78336,3.44821 -4.0733,2.545 z m -8.79678,-2.34811 c -2.04661,-0.63253 -2.34262,-1.19609 -1.73,-3.29373 0.49075,-1.6804 1.03104,-2.02623 2.46384,-1.57709 0.54514,0.17088 1.58836,0.46436 2.31826,0.65217 1.58518,0.40788 1.84309,0.92536 1.33969,2.68802 -0.67232,2.35411 -1.16816,2.52693 -4.39179,1.53063 z m 11.12432,-4.98955 c -2.24436,-0.61874 -2.30285,-0.68985 -2.08738,-2.53784 0.28356,-2.43202 0.90479,-2.82594 3.38565,-2.14685 2.50157,0.68477 2.71346,0.92085 2.44332,2.72223 -0.35998,2.40051 -0.97759,2.72445 -3.74159,1.96246 z m -8.59708,-2.30901 c -2.70981,-0.73425 -2.95035,-1.13589 -2.1934,-3.66237 0.47783,-1.59487 1.05285,-1.7387 3.74536,-0.93684 2.50007,0.74456 2.76744,1.10078 2.25763,3.00791 -0.6174,2.30959 -0.83037,2.39854 -3.80959,1.5913 z m 66.3749,7.07158 c 0.27658,-0.27657 0.50286,-0.913 0.50286,-1.41428 0,-1.07799 -0.0352,-1.09164 -8.75735,-3.39961 -6.15998,-1.62998 -6.67155,-1.6279 -6.86767,0.028 -0.15827,1.33641 0.0879,1.45248 7.23324,3.41032 7.66996,2.10158 7.2382,2.02629 7.88892,1.37557 z m 2.2947,-7.67007 c 0.43839,-1.74669 0.3386,-1.803 -6.59473,-3.72094 -8.49987,-2.35129 -8.95711,-2.35634 -8.95711,-0.0988 0,1.03143 -0.097,0.99207 7.49069,3.03841 7.07123,1.90705 7.76182,1.97399 8.06115,0.78138 z m -29.69651,-4.86707 c 0.37253,-0.75086 -0.17619,-8.62775 -0.67328,-9.66489 -0.28964,-0.60432 -0.63781,-0.81511 -1.34636,-0.81511 -0.95569,0 -0.95569,0 -0.83879,5.12 0.0643,2.816 0.26192,5.3 0.43918,5.52 0.48429,0.60105 2.09449,0.49456 2.41925,-0.16 z m 33.26632,-1.12 c 1.69055,-2.11307 1.01276,-2.5043 -9.0155,-5.20394 -9.43182,-2.53906 -9.86568,-2.58628 -10.37369,-1.12899 -0.56128,1.61006 -0.1155,1.8221 9.07889,4.3185 9.26749,2.51625 9.82213,2.62461 10.3103,2.01443 z m -45.34658,-1.69816 c 0.33842,-0.40777 0.3268,-1.39957 -0.0641,-5.46604 -0.50616,-5.266104 -0.65484,-5.637874 -2.191,-5.478696 -0.8,0.0829 -0.8,0.0829 -0.68165,5.362896 0.0651,2.904 0.26272,5.46 0.43918,5.68 0.44926,0.5601 2.00187,0.49908 2.49754,-0.0982 z m 39.65451,-5.0954 c 0.53318,-0.32953 0.38514,-1.79084 -0.47131,-4.652235 -0.99346,-3.319127 -1.95986,-4.015795 -3.65409,-2.634205 -0.68672,0.56 -0.68672,0.56 0.17495,3.92 1.05859,4.12783 1.75636,4.72246 3.95045,3.36644 z"
       id="path318" />
  </g>
</svg>
