<?xml version="1.0" encoding="UTF-8"?>
<svg xmlns="http://www.w3.org/2000/svg" xmlns:xlink="http://www.w3.org/1999/xlink" width="16px" height="16px" viewBox="0 0 16 16" version="1.1">
<g id="surface728243">
<path style=" stroke:none;fill-rule:nonzero;fill:rgb(13.333334%,13.333334%,13.333334%);fill-opacity:1;" d="M 7.5 1.019531 C 6.949219 1.019531 6.503906 1.464844 6.503906 2.015625 L 6.503906 2.46875 C 6.03125 2.597656 5.574219 2.789062 5.148438 3.035156 L 4.824219 2.710938 C 4.433594 2.320312 3.804688 2.320312 3.414062 2.710938 L 2.710938 3.417969 C 2.320312 3.808594 2.320312 4.4375 2.710938 4.828125 L 3.03125 5.148438 C 2.785156 5.574219 2.597656 6.03125 2.46875 6.503906 L 2.015625 6.503906 C 1.464844 6.503906 1.019531 6.949219 1.019531 7.5 L 1.019531 8.5 C 1.019531 9.050781 1.464844 9.496094 2.015625 9.496094 L 2.464844 9.496094 C 2.597656 9.96875 2.785156 10.425781 3.03125 10.851562 L 2.710938 11.171875 C 2.320312 11.5625 2.320312 12.191406 2.710938 12.582031 L 3.414062 13.289062 C 3.804688 13.679688 4.433594 13.679688 4.824219 13.289062 L 5.144531 12.96875 C 5.574219 13.210938 6.027344 13.402344 6.503906 13.527344 L 6.503906 13.984375 C 6.503906 14.535156 6.949219 14.980469 7.5 14.980469 L 8.496094 14.980469 C 9.050781 14.980469 9.496094 14.535156 9.496094 13.984375 L 9.496094 13.53125 C 9.96875 13.402344 10.425781 13.210938 10.851562 12.964844 L 11.171875 13.289062 C 11.5625 13.679688 12.191406 13.679688 12.582031 13.289062 L 13.289062 12.582031 C 13.679688 12.191406 13.679688 11.5625 13.289062 11.171875 L 12.96875 10.851562 C 13.210938 10.425781 13.402344 9.96875 13.527344 9.496094 L 13.980469 9.496094 C 14.535156 9.496094 14.980469 9.050781 14.980469 8.5 L 14.980469 7.5 C 14.980469 6.949219 14.535156 6.503906 13.980469 6.503906 L 13.53125 6.503906 C 13.402344 6.03125 13.210938 5.574219 12.964844 5.148438 L 13.289062 4.828125 C 13.679688 4.4375 13.679688 3.808594 13.289062 3.417969 L 12.582031 2.710938 C 12.191406 2.320312 11.5625 2.320312 11.171875 2.710938 L 10.851562 3.03125 C 10.425781 2.789062 9.96875 2.601562 9.496094 2.472656 L 9.496094 2.015625 C 9.496094 1.464844 9.050781 1.019531 8.496094 1.019531 Z M 8.015625 4.996094 C 9.675781 4.996094 11.015625 6.339844 11.015625 7.996094 C 11.015625 9.652344 9.675781 10.996094 8.015625 10.996094 C 6.359375 10.996094 5.015625 9.652344 5.015625 7.996094 C 5.015625 6.339844 6.359375 4.996094 8.015625 4.996094 Z M 8.015625 4.996094 "/>
</g>
</svg>
