<?xml version="1.0" encoding="UTF-8" standalone="no"?>
<svg
   width="16px"
   height="16px"
   version="1.1"
   viewBox="0 0 16 16"
   id="svg2"
   xmlns="http://www.w3.org/2000/svg"
   xmlns:svg="http://www.w3.org/2000/svg">
  <defs
     id="defs2" />
  <g
     id="g5"
     style="fill:#222222;fill-opacity:1">
    <path
       id="path1-3"
       style="fill:#222222;fill-opacity:0.34999999"
       d="M 12.039062 0.00390625 C 11.781251 -0.0078127383 11.515625 0.078125657 11.3125 0.28515625 L 8 3.578125 L 8 5 L 9.390625 5 L 12.695312 1.703125 C 13.101562 1.2968754 13.058594 0.6601554 12.726562 0.30859375 C 12.550782 0.12499993 12.296875 0.015625038 12.039062 0.00390625 z M 7 1.0078125 C 6.7031253 1.0039025 6.4218748 1.1328122 6.234375 1.359375 L 3 5 L 2 5 C 0.90625109 5 0 5.8437512 0 7 L 0 9 C 0 10.089843 0.91015709 11 2 11 L 3 11 L 6.234375 14.640625 C 6.4414058 14.894531 6.7226563 15.003906 7 15 L 7 1.0078125 z M 8 7 L 8 9 L 11 9 L 14 9 C 14.749999 9 15 8.4999995 15 8 C 15 7.5000005 14.749999 7 14 7 L 8 7 z M 8 11 L 8 12.421875 L 9.3984375 13.806641 C 9.4552469 13.729963 9.5167252 13.65515 9.5859375 13.585938 L 10.171875 13 L 9.5859375 12.414062 C 9.1997076 12.027832 9.0058594 11.513915 9.0058594 11 L 8 11 z " />
    <path
       d="m 11,10 c -0.265625,0 -0.519531,0.105469 -0.707031,0.292969 -0.3906243,0.390625 -0.3906243,1.023437 0,1.414062 L 11.585938,13 10.292969,14.292969 c -0.3906243,0.390625 -0.3906243,1.023437 0,1.414062 0.390625,0.390625 1.023437,0.390625 1.414062,0 L 13,14.414062 l 1.292969,1.292969 c 0.390625,0.390625 1.023437,0.390625 1.414062,0 0.390625,-0.390625 0.390625,-1.023437 0,-1.414062 L 14.414062,13 15.707031,11.707031 c 0.390625,-0.390625 0.390625,-1.023437 0,-1.414062 C 15.519531,10.105469 15.265625,10 15,10 c -0.265625,0 -0.519531,0.105469 -0.707031,0.292969 L 13,11.585938 11.707031,10.292969 C 11.519531,10.105469 11.265625,10 11,10 Z m 0,0"
       id="path2-6"
       style="fill:#222222;fill-opacity:1" />
  </g>
</svg>
